<svg width="190" height="124" viewBox="0 0 190 124" xmlns="http://www.w3.org/2000/svg"><title>logo</title><path d="M18.74 60.82c-8.75-.13-13.09-3.17-15.66-4.44a79.956 79.956 0 0 1-2.16 4.18 33.22 33.22 0 0 0 17.48 9.18c11.16 2 16.49-4.44 16.43-15.4.06-12.89-6.08-14.63-17.52-12.15-9.29 2.22-11.41 3.47-11.46 1-.05-2.47 4.7-6.73 10.61-10.09 6.14-3.49 11.08-3.18 15.13-.25a853.427 853.427 0 0 0 2.55-8.43c-4-5.46-10.25-5.44-17.78.17-9 7-14.62 15.64-14.64 21.22.07 5.83 3.83 5.44 15.42 4.73C27.32 50 30 51.39 30 55.21s-4.08 5.61-11.26 5.61zM71 73.49l5.92.19v-2.41c-6.31-23.47-12.57-46-18.72-66.13-1.607.453-3.207.937-4.8 1.45-6.1 23.23-12.08 44.61-17.89 62.59v1.91c1.827.187 3.667.363 5.52.53a891.051 891.051 0 0 0 4.62-15.9c6.68-.28 13.54-.5 20.49-.66 1.6 6.04 3.22 12.183 4.86 18.43zM49.08 43.42c2.21-8.12 4.44-16.57 6.69-25.27 2.23 7.65 4.5 15.65 6.77 23.91-4.54.373-9.027.827-13.46 1.36zm63.8 30.27v-14.2H86.32V.37c-1.773.113-3.547.26-5.32.44v73c10.6.19 21.31.19 31.88-.12zm39.37-60.96c-1.653-.773-3.32-1.51-5-2.21V41.4c0 12.57-4.69 18.52-12.93 18.59-8.24.07-13.32-6.9-13.32-21.71V2.57a142.78 142.78 0 0 0-5.27-.92v36.84c0 23.73 7.18 36.26 18.62 35.31 11.45-1.15 17.87-12.3 17.89-31.08.007-9.993.01-19.99.01-29.99zm36.36 25.1a132.87 132.87 0 0 0-32.47-23.21v11c5 1.933 9.891 4.14 14.65 6.61v36.86l4.52-.67V34.68a130.86 130.86 0 0 1 13.3 8.65v-5.5zM2.87 73.92l-1.71-.83v11.68a134.11 134.11 0 0 0 10.57 9.39v-3.2a125.943 125.943 0 0 1-8.86-7V73.92zm12.25 15.5A161.193 161.193 0 0 0 25 94.76v-3.92a146.922 146.922 0 0 1-9.92-4.71v-3.65a155.435 155.435 0 0 0 10.43 4.21v-4a175.119 175.119 0 0 1-12.29-4.25v16.94a132.59 132.59 0 0 0 12.43 8.54v-4c-3.613-2-7.14-4.153-10.58-6.46l.05-4.04zm19.37 5.12c-4.18-2.22-5.25-2.87-5.26-4.46-.01-1.59 2.23-1.55 4.88-.76a12.61 12.61 0 0 1 6.64 5.12c.36-1.02.723-2.053 1.09-3.1a11.64 11.64 0 0 0-7.77-6.67c-4.05-1-6.79.23-6.8 4.77-.01 4.54 1.93 6.47 7.15 9.51 4.54 2.59 5.65 3.59 5.65 5.4 0 1.81-1.73 1.89-4.93.43a17.09 17.09 0 0 1-7.21-6.86c-.347.82-.68 1.627-1 2.42A19 19 0 0 0 35 109.4c5 2.52 7.16.32 7.15-4.51-.01-5.75-2.56-7.68-7.66-10.35zM59.31 90a238.298 238.298 0 0 1-9-1.41v27a126.76 126.76 0 0 0 9 2.81c4.5 1.27 7.24-3.71 7.23-12.86-.01-9.15-2.73-14.98-7.23-15.54zm.69 23c-2.513-.613-5.01-1.28-7.49-2V94.3c2.48.493 4.977.943 7.49 1.35 2.78.43 4.41 4 4.4 9.53-.01 5.53-1.66 8.5-4.4 7.82zm10.86-4.36c3.793.547 7.61.963 11.45 1.25v-5.69c-3.833-.253-7.65-.623-11.45-1.11V97c4 .433 8 .767 12 1v-5.82a278.622 278.622 0 0 1-14.22-1v29.49c4.756.949 9.56 1.64 14.39 2.07v-5.82a147.15 147.15 0 0 1-12.2-1.49l.03-6.79zm21.98-4.03c-4.6-1-5.82-1.39-5.82-3.59 0-2.41 2.49-3.09 5.4-3.06 2.91.03 5.34 1.61 7.21 3.94l1.17-4.17c-1.86-3.76-4.72-5.81-8.43-5.85-4.45 0-7.55 2.68-7.55 9.16s2.2 8.05 7.94 9.35c5 1.07 6.14 1.76 6.14 4s-1.86 3.23-5.35 3.2c-4.28-.05-6.62-3-8-4.95l-1.17 4.09c1.2 2.76 4.07 6.86 9 6.93 5.42 0 7.74-3.84 7.74-9.63 0-6.93-2.69-8.22-8.28-9.42zm10.3 18.32l2.22-.15V92.19l-2.22.08zM117 109.94c1.72-.233 3.437-.49 5.15-.77V111c-1.23 2.52-3.13 4.73-6.17 5.18-3.93.57-6.13-3-6.13-9s2.68-9.81 6.47-10.16c2.88-.28 4.61.84 6.38 3.25l1.21-4c-1.66-3.36-4.25-5.43-7.6-5.17-5.1.38-8.69 6.37-8.69 16.28s3.12 15.51 8.34 14.68c2.37-.37 4.69-2.61 6.21-6.31l.12 4.68 2-.44v-16.76c-2.433.387-4.877.72-7.33 1l.04 5.71zm23.39-.02c-3.58-6-7.2-12.66-10.85-19.79l-2.85.36v28.9l2.17-.54V96.02c3.66 7 7.28 13.6 10.87 19.5.933-.327 1.86-.66 2.78-1V88l-2.11.39c-.007 7.187-.01 14.363-.01 21.53zm6.79-7.92c3.6-1.207 7.14-2.54 10.62-4v-4.3a165.164 165.164 0 0 1-10.62 3.54v-5.28a181.96 181.96 0 0 0 11.15-3.19v-4.36a213.17 213.17 0 0 1-13.24 3.12v26a132.48 132.48 0 0 0 13.39-6.28v-4.36c-3.7 1.807-7.467 3.44-11.3 4.9V102zm27.5-17.33c0-3.77-1.52-4.87-4.19-4a173.596 173.596 0 0 1-10 3.11v22.28l2-1.14v-8.34a142.11 142.11 0 0 0 6.52-3.3 98.994 98.994 0 0 0 3.11 5.43c.74-.52 1.477-1.053 2.21-1.6v-.59a69.97 69.97 0 0 1-3.12-4.85 7.88 7.88 0 0 0 3.47-7zm-3.77 4a181.413 181.413 0 0 1-8.39 3.82v-5c2.847-1 5.643-2.067 8.39-3.2 1.34-.55 1.89 0 1.89 1.34a3.25 3.25 0 0 1-1.89 3.05v-.01zm11.71-6.91c-3.69 1.76-4.74 2.07-4.73.9.01-1.17 2.06-2.68 4.39-3.87a11.92 11.92 0 0 1 5.67-1.51c.3-.733.6-1.45.9-2.15-1.42-.6-3.63-.48-6.6.78-3.57 1.47-6.18 4-6.18 7.74s1.88 3.48 6.49.9c4-2.29 4.82-2.79 4.83-1.88.01.91-1.42 2.53-4.2 4.78-3.42 2.76-5.37 2.65-6.5 2.3l-1 3c1 .87 3.42 1.18 7.34-2.34 4.31-3.92 6-7.15 6-9.26.05-2.61-1.96-1.57-6.41.61z" fill="#FF001E"/></svg>