<svg width="90" height="90" xmlns="http://www.w3.org/2000/svg"><g fill="none" fill-rule="evenodd"><circle fill="#FFD2D2" cx="45" cy="45" r="45"/><g fill="#FF001E" fill-rule="nonzero"><path d="M14.407 44.455c-3.391-.05-5.074-1.231-6.07-1.725-.281.585-.56 1.127-.837 1.624a12.867 12.867 0 0 0 6.776 3.567c4.325.777 6.391-1.725 6.368-5.984.023-5.008-2.357-5.684-6.79-4.72-3.602.862-4.424 1.348-4.443.388-.02-.96 1.822-2.615 4.113-3.92 2.38-1.356 4.294-1.236 5.864-.098.328-1.067.658-2.159.989-3.275-1.55-2.121-3.973-2.114-6.892.066-3.489 2.72-5.667 6.077-5.675 8.245.027 2.265 1.485 2.114 5.977 1.838 3.946-.21 4.985.33 4.985 1.814 0 1.485-1.582 2.18-4.365 2.18zM35.333 50.306l2.322.075v-.951c-2.475-9.267-4.93-18.162-7.34-26.11-.63.179-1.258.37-1.883.572-2.392 9.172-4.736 17.614-7.014 24.713v.754c.716.074 1.437.143 2.164.21a353.693 353.693 0 0 0 1.811-6.279c2.62-.11 5.31-.197 8.035-.26.627 2.384 1.262 4.81 1.905 7.276zm-8.595-11.872a823.676 823.676 0 0 0 2.624-9.978c.874 3.02 1.764 6.18 2.654 9.44-1.78.148-3.54.327-5.278.538zM51.572 49.51v-5.52H41.265V21c-.688.044-1.376.101-2.064.171v28.387c4.113.073 8.27.073 12.371-.047zM67.81 26.163a51.878 51.878 0 0 0-2.012-.875v12.236c0 4.98-1.887 7.338-5.201 7.366-3.315.027-5.359-2.735-5.359-8.603v-14.15a58.233 58.233 0 0 0-2.12-.364V36.37c0 9.403 2.889 14.368 7.49 13.992 4.607-.456 7.19-4.874 7.197-12.315.003-3.96.004-7.921.004-11.884zM82.5 35.637a53.782 53.782 0 0 0-13.144-9.225v4.372a59.786 59.786 0 0 1 5.93 2.628v14.65l1.83-.266v-13.41a53.09 53.09 0 0 1 5.384 3.437v-2.186zM8.899 49.943l-.626-.335v4.715a51.008 51.008 0 0 0 3.866 3.79v-1.291a47.092 47.092 0 0 1-3.24-2.826v-4.053zM13.621 56.26a59.196 59.196 0 0 0 3.688 2.106v-1.547a53.567 53.567 0 0 1-3.702-1.858v-1.44a56.244 56.244 0 0 0 3.892 1.661v-1.578a63.003 63.003 0 0 1-4.587-1.676v6.682a49.484 49.484 0 0 0 4.64 3.37V60.4a53.872 53.872 0 0 1-3.95-2.548l.02-1.594zM21.397 58.173c-1.699-.855-2.133-1.105-2.138-1.718-.004-.612.907-.596 1.984-.292a5.098 5.098 0 0 1 2.698 1.971l.443-1.193c-.577-1.273-1.743-2.22-3.157-2.568-1.646-.385-2.76.088-2.764 1.836-.004 1.748.784 2.491 2.906 3.661 1.845.998 2.296 1.383 2.296 2.08 0 .696-.703.727-2.004.165a6.8 6.8 0 0 1-2.93-2.641c-.14.316-.276.626-.406.932.661 1.47 1.813 2.696 3.28 3.488 2.032.97 2.91.123 2.905-1.737-.004-2.213-1.04-2.957-3.113-3.984zM31.033 56.339a89.642 89.642 0 0 1-3.43-.545V66.23c1.128.405 2.272.767 3.43 1.086 1.715.491 2.76-1.434 2.756-4.97-.004-3.537-1.04-5.79-2.756-6.007zm.263 8.89a67.625 67.625 0 0 1-2.854-.773V58c.945.19 1.896.364 2.854.522 1.06.166 1.68 1.546 1.677 3.683-.004 2.138-.633 3.286-1.677 3.023zM35.397 63.411c1.427.214 2.862.378 4.306.49v-2.23a67.71 67.71 0 0 1-4.306-.435v-2.388c1.504.17 3.009.3 4.513.392V56.96a100.619 100.619 0 0 1-5.348-.392v11.56c1.789.372 3.595.643 5.412.811v-2.281a53.208 53.208 0 0 1-4.588-.584l.01-2.662zM44.264 62.296c-1.912-.39-2.42-.541-2.42-1.398 0-.938 1.036-1.203 2.246-1.191 1.21.012 2.22.627 2.997 1.534l.486-1.624c-.773-1.463-1.962-2.261-3.504-2.277-1.85 0-3.139 1.043-3.139 3.566 0 2.522.915 3.134 3.301 3.64 2.078.416 2.552.685 2.552 1.557 0 .872-.773 1.257-2.224 1.245-1.779-.019-2.752-1.167-3.325-1.926l-.487 1.592c.5 1.074 1.692 2.67 3.742 2.697 2.253 0 3.217-1.494 3.217-3.748 0-2.698-1.118-3.2-3.442-3.667zM48.48 69.711l.773-.06v-12.31l-.774.031zM53.941 64.079a83.651 83.651 0 0 0 2.15-.307v.73c-.513 1.003-1.306 1.883-2.575 2.062-1.641.227-2.56-1.195-2.56-3.584 0-2.39 1.12-3.907 2.702-4.047 1.202-.111 1.924.335 2.663 1.295l.505-1.593c-.693-1.338-1.774-2.163-3.173-2.06-2.129.152-3.627 2.538-3.627 6.484 0 3.947 1.302 6.177 3.481 5.847.99-.147 1.958-1.04 2.593-2.513l.05 1.864.835-.175v-6.675a73.47 73.47 0 0 1-3.06.398l.016 2.274zM63.114 64.433c-1.4-2.365-2.815-4.99-4.242-7.8l-1.114.142v11.39l.848-.213v-8.997c1.431 2.758 2.847 5.36 4.25 7.685.365-.129.728-.26 1.087-.394V55.794l-.825.154c-.002 2.832-.004 5.66-.004 8.485zM65.561 61.253a62.714 62.714 0 0 0 4.293-1.593v-1.713a67.459 67.459 0 0 1-4.293 1.41v-2.103c1.528-.38 3.03-.803 4.507-1.27v-1.737c-1.746.465-3.53.88-5.352 1.243v10.355a53.919 53.919 0 0 0 5.413-2.5v-1.737a55.54 55.54 0 0 1-4.568 1.951v-2.306zM76.31 54.377c0-1.476-.58-1.907-1.597-1.566a64.854 64.854 0 0 1-3.81 1.218v8.724l.761-.447v-3.265c.841-.41 1.67-.84 2.485-1.292a39.05 39.05 0 0 0 1.185 2.126c.282-.204.562-.413.842-.627v-.23a27.499 27.499 0 0 1-1.189-1.9 3.114 3.114 0 0 0 1.322-2.74zm-1.437 1.566a68.247 68.247 0 0 1-3.197 1.496v-1.958c1.084-.391 2.15-.809 3.197-1.253.51-.215.72 0 .72.525.015.51-.269.98-.72 1.194v-.004zM79.9 53.001c-1.498.66-1.924.777-1.92.338.004-.44.836-1.006 1.781-1.453a5.142 5.142 0 0 1 2.3-.567c.122-.275.244-.544.366-.807-.576-.225-1.473-.18-2.678.293-1.448.552-2.507 1.502-2.507 2.905 0 1.404.763 1.307 2.633.338 1.623-.86 1.955-1.047 1.96-.705.003.341-.577.95-1.705 1.794-1.387 1.036-2.178.995-2.637.863l-.405 1.126c.405.327 1.387.443 2.977-.878 1.749-1.471 2.435-2.684 2.435-3.476.02-.98-.796-.59-2.6.23z"/></g></g></svg>
