<?xml version="1.0" standalone="no"?>
<!DOCTYPE svg PUBLIC "-//W3C//DTD SVG 20010904//EN"
 "http://www.w3.org/TR/2001/REC-SVG-20010904/DTD/svg10.dtd">
<svg version="1.0" xmlns="http://www.w3.org/2000/svg"
 width="700.000000pt" height="700.000000pt" viewBox="0 0 700.000000 700.000000"
 preserveAspectRatio="xMidYMid meet">
<metadata>
Created by potrace 1.11, written by Peter Selinger 2001-2013
</metadata>
<g transform="translate(0.000000,700.000000) scale(0.100000,-0.100000)"
fill="#000000" stroke="none">
<path d="M3120 5361 l-65 -6 -3 -1107 -2 -1108 337 0 c186 0 402 3 481 7 l142
6 0 214 0 213 -400 0 -400 0 0 895 c0 710 -3 895 -12 893 -7 -1 -42 -4 -78 -7z"/>
<path d="M4133 4608 c3 -472 8 -729 16 -783 59 -392 169 -609 359 -702 71 -36
82 -38 166 -38 317 1 535 265 585 705 5 52 13 337 15 633 l6 538 -76 35 c-41
19 -77 34 -80 34 -2 0 -4 -210 -4 -467 0 -504 -8 -652 -41 -759 -42 -137 -102
-213 -209 -263 -47 -22 -69 -25 -155 -26 -82 0 -109 4 -147 22 -105 48 -170
126 -214 256 -50 148 -54 203 -54 868 l0 617 -67 11 c-38 7 -76 14 -86 17 -18
6 -18 -21 -14 -698z"/>
<path d="M2287 5166 c-38 -12 -72 -28 -76 -36 -5 -8 -39 -130 -76 -270 -137
-521 -271 -992 -402 -1418 -41 -134 -73 -251 -71 -260 3 -18 44 -29 123 -33
l50 -3 70 241 69 241 96 6 c52 3 193 9 312 12 l216 6 11 -37 c5 -21 38 -146
72 -277 71 -273 61 -258 180 -258 l69 0 0 38 c0 34 -230 895 -370 1382 -77
267 -200 683 -203 685 -1 1 -33 -7 -70 -19z m102 -756 c55 -195 99 -356 98
-356 -3 -2 -402 -42 -404 -40 -1 0 43 170 98 376 54 206 99 380 100 385 1 16
2 12 108 -365z"/>
<path d="M5392 4773 l3 -168 125 -52 c69 -29 171 -74 227 -100 l102 -48 1
-567 c0 -312 3 -569 8 -571 4 -3 37 0 74 5 l68 10 2 519 3 519 120 -72 c66
-40 157 -99 203 -131 46 -31 85 -57 88 -57 2 0 4 38 4 85 l0 84 -117 103
c-194 170 -369 301 -563 420 -130 80 -325 188 -340 188 -7 0 -10 -51 -8 -167z"/>
<path d="M1310 4759 c-141 -23 -297 -127 -469 -315 -221 -241 -299 -511 -168
-581 35 -19 89 -21 454 -15 201 3 247 -4 294 -46 40 -36 49 -101 21 -152 -43
-79 -208 -120 -403 -99 -121 12 -191 31 -300 81 -49 22 -91 39 -93 37 -1 -2
-17 -30 -33 -61 l-31 -57 42 -39 c101 -93 271 -185 413 -224 54 -14 110 -21
183 -22 96 -1 110 2 167 28 149 68 215 206 215 447 1 178 -27 267 -102 331
-94 81 -242 81 -569 -2 -143 -36 -187 -38 -196 -11 -10 32 21 89 80 146 69 68
249 188 323 215 115 43 237 41 321 -6 24 -13 46 -22 49 -20 6 7 72 226 72 241
0 25 -51 74 -103 99 -61 28 -105 35 -167 25z"/>
<path d="M640 2957 l0 -184 144 -141 c80 -78 150 -142 155 -142 6 0 11 20 11
44 0 40 -4 47 -47 82 -27 22 -85 72 -130 112 l-83 73 0 159 c0 147 -1 160 -19
170 -11 5 -22 10 -25 10 -3 0 -6 -83 -6 -183z"/>
<path d="M6234 3059 c-74 -23 -147 -70 -188 -122 -25 -31 -31 -49 -34 -101 -8
-116 36 -123 218 -31 61 30 114 55 120 55 24 0 6 -37 -39 -81 -87 -84 -188
-139 -256 -139 -28 0 -33 -4 -45 -41 -12 -35 -12 -42 1 -50 26 -16 74 -9 130
18 64 31 217 179 246 238 42 83 38 135 -9 135 -11 0 -72 -22 -136 -49 -154
-65 -172 -70 -172 -42 0 12 12 34 28 48 40 38 159 92 229 104 54 10 63 14 72
39 5 16 7 31 4 34 -13 13 -111 4 -169 -15z"/>
<path d="M1000 2701 l0 -258 113 -85 c61 -47 144 -106 182 -132 l70 -46 3 57
c3 47 0 60 -15 71 -10 7 -80 53 -155 102 l-138 89 0 61 c0 69 -12 70 113 -4
42 -25 100 -57 127 -71 l50 -25 0 59 0 60 -145 72 -145 72 0 54 c0 52 1 54 23
47 12 -3 38 -15 57 -24 34 -17 210 -90 217 -90 2 0 3 27 1 61 l-3 61 -175 64
c-96 35 -176 64 -177 64 -2 0 -3 -116 -3 -259z"/>
<path d="M5705 2860 c-66 -22 -137 -45 -157 -50 l-38 -11 0 -339 c0 -187 2
-340 5 -340 3 0 17 7 30 16 24 16 25 20 25 139 0 86 4 125 13 132 6 5 50 31
97 56 l86 46 44 -80 c24 -43 48 -79 54 -79 6 1 24 11 40 24 l29 24 -47 74
c-25 41 -46 79 -46 85 0 5 12 20 26 32 63 55 91 220 46 280 -28 38 -70 37
-207 -9z m163 -82 c17 -17 15 -55 -5 -88 -12 -21 -49 -44 -137 -86 -67 -31
-127 -59 -133 -61 -10 -4 -13 14 -13 70 l0 74 133 51 c152 59 139 56 155 40z"/>
<path d="M1503 2765 c-43 -23 -63 -69 -63 -147 1 -116 43 -170 205 -264 127
-72 182 -117 190 -154 15 -69 -42 -77 -162 -20 -50 23 -87 51 -144 110 -76 78
-77 78 -88 54 -16 -35 -14 -52 11 -93 82 -137 238 -251 343 -251 81 0 128 98
106 222 -21 119 -57 157 -251 262 -120 65 -150 90 -150 123 0 81 215 25 320
-82 l44 -45 17 46 c18 46 18 47 -5 83 -79 124 -274 206 -373 156z"/>
<path d="M5390 2768 c-19 -6 -107 -27 -195 -47 l-160 -37 -3 -403 c-2 -364 -1
-403 14 -397 69 26 264 115 329 149 l80 42 3 54 c5 85 4 85 -93 40 -76 -35
-254 -109 -262 -109 -2 0 -3 39 -3 88 l0 87 120 43 c66 23 140 51 165 62 l45
19 0 67 c0 49 -3 65 -12 61 -45 -16 -299 -97 -307 -97 -7 0 -11 30 -11 79 0
78 0 79 28 85 15 4 93 25 175 48 l147 41 0 69 c0 74 0 74 -60 56z"/>
<path d="M2150 2251 l0 -408 138 -42 c75 -23 150 -41 165 -41 68 0 123 63 155
177 23 82 22 343 -1 436 -31 123 -93 215 -160 236 -25 8 -272 51 -292 51 -3 0
-5 -184 -5 -409z m209 209 c119 -22 149 -42 178 -119 26 -66 26 -302 1 -348
-41 -74 -61 -77 -218 -35 l-105 29 -3 252 -2 251 22 -5 c13 -3 70 -14 127 -25z"/>
<path d="M4928 2653 c-16 -4 -18 -31 -20 -331 l-3 -326 -81 145 c-45 79 -118
214 -163 300 l-81 155 -42 -5 -43 -6 -3 -444 -2 -443 22 6 c13 3 29 6 36 6 9
0 12 76 12 348 l0 347 52 -95 c50 -94 268 -482 273 -488 2 -2 21 2 44 9 l41
12 0 409 c0 320 -3 408 -12 407 -7 -1 -21 -3 -30 -6z"/>
<path d="M2690 2151 c0 -248 1 -451 3 -451 1 0 38 -7 82 -15 84 -17 286 -45
317 -45 16 0 18 10 18 89 l0 88 -72 7 c-40 4 -121 14 -180 23 l-108 16 0 97
c0 53 2 99 5 101 2 3 44 0 92 -7 49 -6 123 -15 166 -19 l77 -7 0 86 c0 61 -4
88 -12 90 -7 2 -74 9 -148 16 -197 17 -180 6 -180 111 0 86 1 89 23 89 12 0
89 -7 172 -15 82 -7 153 -11 157 -9 10 7 10 174 1 174 -24 0 -298 21 -350 26
l-63 6 0 -451z"/>
<path d="M4130 2591 c-83 -25 -152 -98 -190 -198 -74 -194 -62 -500 24 -646
52 -89 141 -127 230 -97 42 13 119 87 145 138 l18 35 6 -63 c4 -35 8 -64 10
-66 1 -1 14 0 30 3 l27 5 0 259 0 259 -27 -1 c-16 0 -68 -6 -118 -12 l-90 -12
-3 -89 -3 -89 72 7 c39 4 77 10 85 13 25 9 16 -58 -14 -102 -61 -88 -169 -132
-249 -100 -76 30 -114 117 -114 259 -1 127 31 219 92 271 45 37 75 47 136 46
67 -1 100 -14 144 -58 41 -39 39 -39 63 34 l17 52 -31 45 c-65 95 -164 136
-260 107z"/>
<path d="M3336 2525 c-61 -21 -88 -47 -120 -109 -27 -52 -30 -66 -30 -154 0
-100 15 -154 52 -195 30 -33 108 -66 219 -92 127 -30 168 -52 177 -93 17 -74
-39 -114 -159 -115 -89 -1 -151 26 -221 94 l-50 50 -17 -61 c-16 -56 -16 -63
-1 -93 29 -57 114 -136 172 -157 134 -51 267 -7 323 107 21 42 24 63 24 163 0
103 -2 119 -24 157 -40 70 -70 85 -256 133 -66 17 -130 37 -142 46 -33 21 -32
82 2 114 22 20 38 24 113 28 102 5 154 -13 221 -74 23 -20 43 -35 44 -33 2 2
11 30 20 61 22 70 14 90 -61 160 -76 72 -191 97 -286 63z"/>
<path d="M3770 2060 l0 -480 30 0 30 0 0 480 0 480 -30 0 -30 0 0 -480z"/>
</g>
</svg>
